<svg xmlns="http://www.w3.org/2000/svg" version="1.1" xmlns:xlink="http://www.w3.org/1999/xlink" viewBox="0 0 640 400" class=""><g viewBox="0 0 640 400"><g><g><g><svg viewBox="0 0 640 400" data-background-color="#ffffff" preserveAspectRatio="xMidYMid meet" height="400" width="640" xmlns="http://www.w3.org/2000/svg" xmlns:xlink="http://www.w3.org/1999/xlink"><rect width="640" height="400" x="0" y="0" opacity="1" fill="#ffffff" data-fill-palette-color="background" id="background"></rect><g id="tight-bounds" transform="matrix(1,0,0,1,122.24000000000001,60)"><svg viewBox="0 0 395.52 280" height="280" width="395.52"><g><svg viewBox="0 0 395.52 280" height="280" width="395.52"><g><svg viewBox="0 0 395.52 280" height="280" width="395.52"><g id="textblocktransform"><svg viewBox="0 0 395.52 280" height="280" width="395.52" id="textblock"><g><svg viewBox="0 0 395.52 280" height="280" width="395.52"><g transform="matrix(1,0,0,1,131.7633754811582,74.00336708925556)"><svg viewBox="0 0 131.9932490376836 131.99326582148888" height="131.99326582148888" width="131.9932490376836"><g><svg xmlns="http://www.w3.org/2000/svg" viewBox="16 15.999804496765137 480.0001220703125 480.00018310546875" x="0" y="0" height="131.99326582148888" width="131.9932490376836" class="icon-o-0" data-fill-palette-color="accent" id="o-0"><g fill="#4a596d" data-fill-palette-color="accent"><path d="M164 136a12 12 0 1 0-12-12A12.013 12.013 0 0 0 164 136Z" fill="#4a596d" data-fill-palette-color="accent"></path><path d="M236 136a12 12 0 1 0-12-12A12.013 12.013 0 0 0 236 136Z" fill="#4a596d" data-fill-palette-color="accent"></path><path d="M227.578 175.155l-7.156-14.31A68.118 68.118 0 0 1 190.111 168H184v16h6.111A84.209 84.209 0 0 0 227.578 175.155Z" fill="#4a596d" data-fill-palette-color="accent"></path><path d="M470.638 277.918l21.768-14.365a8 8 0 0 0 3.056-9.562L481.45 217.742a8 8 0 0 0-8.9-4.985l-25.3 4.637-23.3-60.278a8 8 0 0 0-14.084-1.605c-3.595 5.3-7.355 10.587-11.174 15.7a418.027 418.027 0 0 1-81.008 82.029l-26.347 11.373-1.014-0.276-22-7.332L256 244.686V214.664a73.988 73.988 0 0 0 14.77-25.674 180.663 180.663 0 0 0 5.666-21.3A32 32 0 0 0 280 105.013V88a64.934 64.934 0 0 0-2.582-18.126A7.97 7.97 0 0 0 280 64a48.054 48.054 0 0 0-48-48H198.627a62.152 62.152 0 0 0-41.158 15.443A33.741 33.741 0 0 0 120 64.985V104.9a32 32 0 0 0 3.575 62.848 180.546 180.546 0 0 0 5.656 21.243A73.966 73.966 0 0 0 144 214.663v30.023l-12.322 12.322-22 7.332-49.2 13.422A60.493 60.493 0 0 0 16 336v8H32v-8a44.459 44.459 0 0 1 32.695-42.8l36.231-9.885L88.239 334.06A8 8 0 0 0 96 344h29.754l-5.515 22.06a8 8 0 0 0 2.849 8.255l13.787 10.724-14.752-0.922L104 375.056V360H88v7.056l-12.422-6.211A7.994 7.994 0 0 0 72 360H24a8 8 0 0 0-8 8v96a32.036 32.036 0 0 0 32 32s49.142-0.061 49.7-0.183l102.293-22.24L302.3 495.817A7.956 7.956 0 0 0 304 496h48a32.036 32.036 0 0 0 32-32V339.644a405.241 405.241 0 0 1 86.548 6.518c4.744 0.876 9.542 1.85 14.26 2.9a7.916 7.916 0 0 0 1.732 0.19A8 8 0 0 0 494 338.364Zm-17.522-45.333l15.8-2.9 9.3 24.059-13.481 8.9ZM368 399.484l-75.63-4.726L329.889 376H368ZM200 240a74.071 74.071 0 0 0 40-11.643v15.362l-40 26.666-40-26.666v-15.4A74.953 74.953 0 0 0 200 240Zm90.625 125.934l3.367 10.122-16.116 8.061-14.753 0.922 13.789-10.724a7.978 7.978 0 0 0 2.719-3.964c0.064-0.024 0.129-0.041 0.192-0.067Zm-140-86.917l-5.236-13.091 7.632-7.632 34.422 22.949L161.781 306.9Zm112.351 85.868l-28.193 21.927-11.582 0.725 0.167-0.419c0.021-0.049 0.041-0.1 0.062-0.148l10.207-25.53 1.584 4.1a8 8 0 0 0 10.45 4.536l16.9-6.806ZM224 336.51l1.166 3.016L224 342.441Zm37.858 9.8l-14.639 5.9-12.913-33.408 14.639-5.895ZM248.189 281.99l-2.365 0.953a8 8 0 0 0-4.473 10.305l1.826 4.725-9.9 3.988-11.617-11.616v0l-9.1-9.1 34.423-22.949 7.633 7.633ZM176 315.314v27.145l-7.756-19.39Zm18.47 73.325L192 382.457V299.314l8-8 8 8v83.143l-2.471 6.184-5.527 0.344ZM328 360a7.994 7.994 0 0 0-3.578 0.845l-15.971 7.985-2.955-8.885 27.073-10.9L336.052 360Zm-46.628-7.588l-22.254-57.575 55.915-22.518 22.254 57.575ZM261.31 72A48.488 48.488 0 0 1 264 88v7.314A191.024 191.024 0 0 1 251.6 72ZM288 136a15.92 15.92 0 0 1-4.681 11.307 16.084 16.084 0 0 1-4.246 3.031A180.335 180.335 0 0 0 280 132.11v-9.945A16 16 0 0 1 288 136ZM243.314 56l12.9-12.9A31.934 31.934 0 0 1 262.987 56Zm-0.509-22.119L220.686 56H200.645l19.2-24H232A31.853 31.853 0 0 1 242.805 33.881ZM199.355 32l-19.2 24H168V43.466A46.283 46.283 0 0 1 198.627 32ZM136 64.985a17.778 17.778 0 0 1 16-17.678V62.369a314.715 314.715 0 0 1-16 31.774ZM111.52 136A16.011 16.011 0 0 1 120 121.885V132.11a179.944 179.944 0 0 0 0.954 18.453 16.1 16.1 0 0 1-4.727-3.27A15.878 15.878 0 0 1 111.52 136Zm26.6 22.355A163.872 163.872 0 0 1 136 132.11v-9.279C149.482 105.778 160.712 82.166 165.25 72h68.935c0.072 0.173 0.145 0.353 0.216 0.522a204.716 204.716 0 0 0 24.878 44.237c1.519 2.052 3.109 4.076 4.721 6.073v9.278a163.482 163.482 0 0 1-2.174 26.588 164.9 164.9 0 0 1-6.235 25.23 58.118 58.118 0 0 1-13.347 22.086 59.843 59.843 0 0 1-7.982 6.927A58.228 58.228 0 0 1 200 224a58.912 58.912 0 0 1-42.236-17.979A58.109 58.109 0 0 1 144.41 183.93a165.1 165.1 0 0 1-6.244-25.276ZM106.246 328l12.45-49.8 12.678-4.226 45.2 113c0.018 0.046 0.037 0.092 0.057 0.139l0.17 0.424-11.585-0.724-28.189-21.925 6.736-26.945A8 8 0 0 0 136 328ZM144 445.031l-16-3.478V400.516l16 1ZM32 376H70.111L112 396.944v41.829l-46.869-6.7A7.929 7.929 0 0 0 64 432l-32 0ZM95.141 480H48a16.019 16.019 0 0 1-16-16V448l31.432 0 55.108 7.873 31.76 6.907c0.021 0 0.041 0.006 0.062 0.01l11.973 2.6ZM368 464a16.019 16.019 0 0 1-16 16H304.859L160 448.509V402.516l208 13Zm0-104H352.842l-5.39-16.952 4.714-1.14q7.908-0.879 15.834-1.44Zm105.452-29.572a420.959 420.959 0 0 0-120.616-4.686l-23.643-61.169a434.141 434.141 0 0 0 82.316-83.787q1.46-1.958 2.908-3.943l59.39 153.65Z" fill="#4a596d" data-fill-palette-color="accent"></path><path d="M393.928 217.525l11.929 10.662c3.248-3.635 6.474-7.361 9.588-11.076l-12.261-10.278C400.178 210.418 397.063 214.016 393.928 217.525Z" fill="#4a596d" data-fill-palette-color="accent"></path><path d="M345.1 264.376l10.163 12.36a459.635 459.635 0 0 0 40.815-37.953l-11.588-11.032A443.236 443.236 0 0 1 345.1 264.376Z" fill="#4a596d" data-fill-palette-color="accent"></path><rect x="274.906" y="298.337" width="16" height="19.431" transform="translate(-92.039 122.719) rotate(-21.134)" fill="#4a596d" data-fill-palette-color="accent"></rect><rect x="298.493" y="288.838" width="16" height="19.432" transform="translate(-87.017 130.559) rotate(-21.13)" fill="#4a596d" data-fill-palette-color="accent"></rect><polygon points="176 432 176 440 192 440 192 432 192 424 176 424 176 432" fill="#4a596d" data-fill-palette-color="accent"></polygon><polygon points="208 440 208 448 224 448 224 440 224 432 208 432 208 440" fill="#4a596d" data-fill-palette-color="accent"></polygon></g></svg></g></svg></g><path d="M79.304 208.993L78.02 205.668 98.064 197.933 79.304 195.234 78.517 193.196 90.586 178.556 70.542 186.292 69.255 182.957 95.514 172.823 96.872 176.343 83.488 192.427 104.222 195.386 105.562 198.859ZM99.772 237.047L97.001 233.38 100.291 213.609C100.576 211.967 100.859 210.617 101.138 209.559 101.418 208.502 101.747 207.648 102.126 206.996 102.51 206.341 102.998 205.79 103.589 205.343V205.343C104.561 204.609 105.616 204.21 106.754 204.146 107.897 204.078 109.022 204.315 110.128 204.857 111.23 205.393 112.196 206.21 113.026 207.308V207.308C113.792 208.322 114.299 209.378 114.548 210.476 114.801 211.579 114.772 212.638 114.46 213.653 114.154 214.664 113.526 215.529 112.576 216.247V216.247C111.604 216.981 110.546 217.366 109.403 217.4 108.254 217.439 107.034 217.274 105.743 216.905 104.457 216.542 103.095 216.09 101.658 215.55V215.55C100.476 215.116 99.342 214.774 98.257 214.524 97.168 214.268 96.154 214.189 95.214 214.285 94.275 214.381 93.417 214.722 92.641 215.309V215.309C91.796 215.947 91.248 216.726 90.997 217.646 90.746 218.565 90.746 219.52 90.995 220.509 91.246 221.489 91.683 222.391 92.306 223.214V223.214C93.12 224.292 94.121 225.107 95.311 225.66 96.509 226.214 97.82 226.51 99.242 226.547 100.663 226.584 102.103 226.355 103.562 225.858 105.029 225.363 106.436 224.607 107.783 223.59V223.59L109.531 225.902C107.804 227.207 106.014 228.137 104.16 228.692 102.311 229.242 100.498 229.451 98.721 229.317 96.954 229.184 95.303 228.718 93.77 227.919 92.241 227.125 90.942 226.02 89.872 224.605V224.605C88.839 223.238 88.178 221.792 87.889 220.268 87.6 218.744 87.684 217.312 88.14 215.972 88.605 214.633 89.439 213.509 90.643 212.599V212.599C91.8 211.725 93.02 211.227 94.303 211.103 95.583 210.974 96.886 211.08 98.214 211.42 99.547 211.757 100.84 212.161 102.092 212.634V212.634C103.386 213.116 104.552 213.529 105.591 213.872 106.631 214.215 107.567 214.395 108.401 214.412 109.236 214.419 109.96 214.192 110.573 213.729V213.729C111.312 213.17 111.714 212.439 111.778 211.536 111.833 210.632 111.541 209.757 110.903 208.912V208.912C110.424 208.279 109.869 207.819 109.238 207.532 108.616 207.247 107.985 207.131 107.344 207.184 106.704 207.237 106.12 207.462 105.592 207.861V207.861C105.254 208.117 104.969 208.465 104.738 208.905 104.506 209.345 104.296 210.006 104.107 210.887 103.917 211.777 103.685 213.006 103.41 214.575V214.575ZM108.07 244.403L105.345 242.09 123.534 220.663 126.259 222.976 116.204 234.821 137.343 232.332 140.279 234.825 123.635 236.974 122.542 256.687 119.491 254.098 120.528 237.137 113.634 237.848ZM165.877 276.092L162.557 274.795 170.373 254.783 155.722 266.807 153.688 266.012 151.027 247.227 143.211 267.239 139.882 265.938 150.122 239.721 153.636 241.094 156.474 261.825 172.649 248.52 176.117 249.874ZM180.739 275.046L196.17 276.854 195.802 280 176.82 277.775 180.097 249.821 198.723 252.004 198.354 255.149 183.278 253.382 182.216 262.444 195.32 263.98 194.975 266.928 181.87 265.392ZM214.364 278.331L204.659 279.358 201.697 251.368 211.402 250.341C214.397 250.024 216.965 250.385 219.104 251.423 221.25 252.454 222.935 253.976 224.16 255.989 225.377 257.997 226.123 260.291 226.396 262.871V262.871C226.696 265.708 226.407 268.234 225.53 270.45 224.648 272.673 223.253 274.468 221.348 275.835 219.45 277.207 217.122 278.039 214.364 278.331ZM222.812 263.25V263.25C222.589 261.144 222.003 259.319 221.054 257.776 220.105 256.226 218.848 255.067 217.282 254.301 215.711 253.536 213.862 253.265 211.736 253.49V253.49L205.585 254.141 207.88 275.832 214.031 275.181C216.183 274.953 217.946 274.281 219.318 273.164 220.684 272.048 221.663 270.63 222.253 268.91 222.842 267.184 223.028 265.297 222.812 263.25ZM239.403 273.61L235.956 274.552 228.53 247.404 231.978 246.461ZM246.337 271.031L244.39 240.675 247.094 239.358 269.751 259.633 266.332 261.297 259.73 255.335 249.108 260.506 249.755 269.367ZM248.538 257.703L257.804 253.192 247.55 243.719ZM299.201 235.513L284.945 248.478 266.008 227.655 268.652 225.25 285.458 243.73 297.071 233.17ZM302.202 231.559L285.662 206.03 287.378 203.559 317.054 210.168 314.885 213.292 306.212 211.318 299.474 221.023 304.37 228.436ZM297.606 218.856L303.484 210.391 289.907 207.14ZM321.987 180.58V180.58C323.33 181.143 324.359 181.975 325.074 183.078 325.783 184.179 326.175 185.427 326.251 186.822 326.329 188.211 326.077 189.601 325.494 190.993V190.993L320.331 203.319 294.37 192.445 299.778 179.534C300.29 178.313 301.054 177.395 302.072 176.781 303.093 176.161 304.206 175.824 305.413 175.769 306.626 175.718 307.782 175.922 308.881 176.382V176.382C310.144 176.911 311.196 177.732 312.036 178.845 312.876 179.957 313.314 181.224 313.35 182.646V182.646C314.408 181.338 315.71 180.498 317.258 180.128 318.805 179.757 320.381 179.908 321.987 180.58ZM320.005 183.668V183.668C319.205 183.333 318.389 183.199 317.557 183.267 316.725 183.335 315.978 183.578 315.314 183.996 314.649 184.42 314.152 185.023 313.825 185.805V185.805L309.936 195.09 318.864 198.83 322.646 189.801C322.983 188.995 323.08 188.181 322.936 187.36 322.789 186.545 322.459 185.808 321.946 185.148 321.433 184.489 320.786 183.995 320.005 183.668ZM302.151 181.862L298.599 190.342 307.271 193.974 310.731 185.714C311.058 184.933 311.151 184.161 311.011 183.399 310.871 182.637 310.546 181.941 310.035 181.311 309.521 180.687 308.877 180.212 308.101 179.888V179.888C307.271 179.54 306.463 179.395 305.678 179.454 304.895 179.506 304.189 179.738 303.558 180.148 302.926 180.558 302.458 181.13 302.151 181.862Z" fill="#4a596d" data-fill-palette-color="primary"></path><path d="M98.36 85.864L97.095 89.154 77.292 81.541 89.239 95.951 88.466 97.962 69.929 100.696 89.732 108.308 88.468 111.598 62.52 101.624 63.856 98.149 84.312 95.238 71.091 79.328 72.412 75.89ZM115.933 62.786L113.199 66.419 93.53 68.666C91.891 68.841 90.534 68.938 89.459 68.958 88.381 68.983 87.478 68.9 86.751 68.71 86.03 68.523 85.376 68.209 84.789 67.767V67.767C83.832 67.047 83.165 66.156 82.788 65.094 82.415 64.026 82.335 62.894 82.549 61.696 82.764 60.508 83.279 59.371 84.095 58.287V58.287C84.851 57.282 85.716 56.512 86.69 55.978 87.667 55.438 88.68 55.177 89.727 55.194 90.774 55.212 91.765 55.573 92.702 56.277V56.277C93.664 57.001 94.319 57.904 94.665 58.984 95.012 60.065 95.186 61.265 95.188 62.583 95.186 63.907 95.126 65.324 95.008 66.834V66.834C94.919 68.075 94.903 69.248 94.959 70.35 95.011 71.449 95.208 72.43 95.553 73.294 95.902 74.162 96.463 74.886 97.235 75.467V75.467C98.065 76.092 98.95 76.401 99.89 76.396 100.829 76.382 101.733 76.122 102.602 75.616 103.471 75.11 104.212 74.45 104.825 73.636V73.636C105.625 72.573 106.128 71.398 106.333 70.112 106.53 68.827 106.452 67.505 106.099 66.146 105.752 64.791 105.144 63.485 104.276 62.228 103.409 60.97 102.308 59.84 100.976 58.837V58.837L102.695 56.552C104.403 57.838 105.772 59.282 106.802 60.885 107.828 62.494 108.519 64.157 108.875 65.874 109.233 67.601 109.239 69.299 108.893 70.969 108.552 72.634 107.856 74.165 106.805 75.561V75.561C105.783 76.92 104.59 77.944 103.227 78.633 101.858 79.318 100.476 79.624 99.081 79.552 97.677 79.481 96.382 79 95.198 78.109V78.109C94.05 77.245 93.243 76.22 92.778 75.033 92.313 73.846 92.058 72.578 92.013 71.227 91.973 69.872 92.011 68.534 92.127 67.213V67.213C92.228 65.856 92.3 64.638 92.341 63.56 92.388 62.485 92.302 61.547 92.085 60.746 91.873 59.948 91.463 59.321 90.855 58.863V58.863C90.125 58.314 89.322 58.132 88.445 58.318 87.57 58.512 86.818 59.027 86.189 59.863V59.863C85.72 60.487 85.433 61.137 85.33 61.813 85.231 62.484 85.293 63.119 85.514 63.716 85.74 64.308 86.114 64.801 86.638 65.195V65.195C86.971 65.446 87.378 65.62 87.86 65.717 88.338 65.82 89.023 65.839 89.917 65.774 90.816 65.713 92.043 65.601 93.599 65.438V65.438ZM121.269 58.527L118.587 60.814 100.578 39.69 103.26 37.403 113.218 49.083 114.144 28.072 117.03 25.612 116.486 42.174 135.54 46.36 132.534 48.923 116.158 45.233 115.755 52.06ZM173.108 30.272L169.826 31.557 162.092 11.8 159.509 30.339 157.503 31.125 142.983 19.281 150.717 39.037 147.435 40.322 137.302 14.437 140.768 13.079 156.713 26.22 159.545 5.729 162.975 4.386ZM182.319 26.265L197.562 24.459 197.93 27.564 179.187 29.785 175.916 2.18 194.313 0 194.681 3.106 179.784 4.871 180.845 13.823 193.79 12.289 194.135 15.197 181.19 16.731ZM212.068 29.216L202.49 28.215 205.379 0.567 214.957 1.568C217.919 1.877 220.33 2.751 222.19 4.19 224.042 5.635 225.352 7.452 226.122 9.642 226.891 11.839 227.142 14.207 226.877 16.748V16.748C226.583 19.553 225.782 21.934 224.473 23.894 223.169 25.86 221.457 27.309 219.337 28.238 217.216 29.175 214.793 29.5 212.068 29.216ZM223.332 16.378V16.378C223.548 14.304 223.359 12.421 222.764 10.729 222.162 9.042 221.184 7.669 219.831 6.609 218.471 5.542 216.739 4.898 214.632 4.678V4.678L208.559 4.043 206.32 25.471 212.393 26.105C214.526 26.328 216.369 26.042 217.923 25.246 219.47 24.449 220.707 23.277 221.634 21.731 222.554 20.19 223.12 18.405 223.332 16.378ZM233.888 33.317L230.488 32.389 237.805 5.571 241.205 6.499ZM237.497 34.631L259.908 14.622 262.587 15.925 260.627 45.887 257.253 44.245 257.86 35.487 247.361 30.378 240.88 36.278ZM249.194 28.222L258.354 32.679 259.466 18.934ZM285.422 66.864L271.364 54.035 290.101 33.501 292.705 35.877 276.075 54.101 287.53 64.554ZM285.57 67.553L314.915 61.108 316.609 63.558 300.206 88.707 298.071 85.621 302.896 78.286 296.253 68.685 287.711 70.647ZM298.907 67.705L304.703 76.082 312.415 64.649ZM316.365 108.958V108.958C315.039 109.51 313.74 109.654 312.468 109.388 311.198 109.129 310.049 108.539 309.02 107.62 307.988 106.709 307.186 105.567 306.613 104.192V104.192L301.536 92.013 327.195 81.318 332.512 94.074C333.016 95.284 333.13 96.459 332.852 97.6 332.584 98.745 332.046 99.761 331.241 100.649 330.441 101.534 329.497 102.204 328.41 102.657V102.657C327.157 103.179 325.852 103.35 324.494 103.171 323.127 102.988 321.932 102.417 320.909 101.46V101.46C321.095 103.11 320.779 104.608 319.963 105.952 319.153 107.294 317.953 108.296 316.365 108.958ZM315.571 105.427V105.427C316.365 105.096 317.024 104.613 317.549 103.979 318.082 103.348 318.431 102.654 318.595 101.897 318.758 101.134 318.679 100.367 318.358 99.598V99.598L314.53 90.415 305.715 94.09 309.435 103.016C309.766 103.81 310.27 104.442 310.947 104.913 311.621 105.378 312.367 105.662 313.184 105.766 314.006 105.861 314.801 105.748 315.571 105.427ZM329.224 94.133L325.729 85.748 317.17 89.315 320.573 97.48C320.896 98.256 321.373 98.857 322.002 99.283 322.634 99.715 323.346 99.971 324.139 100.049 324.938 100.125 325.722 100.002 326.492 99.681V99.681C327.31 99.34 327.973 98.874 328.479 98.283 328.98 97.694 329.304 97.035 329.452 96.307 329.6 95.578 329.524 94.854 329.224 94.133Z" fill="#4a596d" data-fill-palette-color="primary"></path><path d="M61.913 143.564C61.913 137.626 66.726 132.812 72.664 132.812 78.602 132.812 83.416 137.626 83.416 143.564 83.416 149.502 78.602 154.316 72.664 154.316 66.726 154.316 61.913 149.502 61.913 143.564ZM312.104 143.564C312.104 137.626 316.918 132.812 322.856 132.812 328.794 132.812 333.607 137.626 333.607 143.564 333.607 149.502 328.794 154.316 322.856 154.316 316.918 154.316 312.104 149.502 312.104 143.564Z" fill="#4a596d" data-fill-palette-color="primary"></path></svg></g></svg></g></svg></g></svg></g></svg><rect width="395.52" height="280" fill="none" stroke="none" visibility="hidden"></rect></g></svg></g></g></g></g><g viewBox="0 0 640 400"><g><g><g><svg viewBox="0 0 640 400" data-background-color="#ffffff" preserveAspectRatio="xMidYMid meet" height="400" width="640" xmlns="http://www.w3.org/2000/svg" xmlns:xlink="http://www.w3.org/1999/xlink"><rect width="640" height="400" x="0" y="0" opacity="1" fill="#ffffff" data-fill-palette-color="background" id="background"></rect><g id="tight-bounds" transform="matrix(1,0,0,1,122.24000000000001,60)"><svg viewBox="0 0 395.52 280" height="280" width="395.52"><g><svg viewBox="0 0 395.52 280" height="280" width="395.52"><g><svg viewBox="0 0 395.52 280" height="280" width="395.52"><g id="textblocktransform"><svg viewBox="0 0 395.52 280" height="280" width="395.52" id="textblock"><g><svg viewBox="0 0 395.52 280" height="280" width="395.52"><g transform="matrix(1,0,0,1,131.7633754811582,74.00336708925556)"><svg viewBox="0 0 131.9932490376836 131.99326582148888" height="131.99326582148888" width="131.9932490376836"><g><svg xmlns="http://www.w3.org/2000/svg" viewBox="16 15.999804496765137 480.0001220703125 480.00018310546875" x="0" y="0" height="131.99326582148888" width="131.9932490376836" class="icon-o-0" data-fill-palette-color="accent" id="o-0"><g fill="#0023ff" data-fill-palette-color="accent"><path d="M164 136a12 12 0 1 0-12-12A12.013 12.013 0 0 0 164 136Z" fill="#0023ff" data-fill-palette-color="accent"></path><path d="M236 136a12 12 0 1 0-12-12A12.013 12.013 0 0 0 236 136Z" fill="#0023ff" data-fill-palette-color="accent"></path><path d="M227.578 175.155l-7.156-14.31A68.118 68.118 0 0 1 190.111 168H184v16h6.111A84.209 84.209 0 0 0 227.578 175.155Z" fill="#0023ff" data-fill-palette-color="accent"></path><path d="M470.638 277.918l21.768-14.365a8 8 0 0 0 3.056-9.562L481.45 217.742a8 8 0 0 0-8.9-4.985l-25.3 4.637-23.3-60.278a8 8 0 0 0-14.084-1.605c-3.595 5.3-7.355 10.587-11.174 15.7a418.027 418.027 0 0 1-81.008 82.029l-26.347 11.373-1.014-0.276-22-7.332L256 244.686V214.664a73.988 73.988 0 0 0 14.77-25.674 180.663 180.663 0 0 0 5.666-21.3A32 32 0 0 0 280 105.013V88a64.934 64.934 0 0 0-2.582-18.126A7.97 7.97 0 0 0 280 64a48.054 48.054 0 0 0-48-48H198.627a62.152 62.152 0 0 0-41.158 15.443A33.741 33.741 0 0 0 120 64.985V104.9a32 32 0 0 0 3.575 62.848 180.546 180.546 0 0 0 5.656 21.243A73.966 73.966 0 0 0 144 214.663v30.023l-12.322 12.322-22 7.332-49.2 13.422A60.493 60.493 0 0 0 16 336v8H32v-8a44.459 44.459 0 0 1 32.695-42.8l36.231-9.885L88.239 334.06A8 8 0 0 0 96 344h29.754l-5.515 22.06a8 8 0 0 0 2.849 8.255l13.787 10.724-14.752-0.922L104 375.056V360H88v7.056l-12.422-6.211A7.994 7.994 0 0 0 72 360H24a8 8 0 0 0-8 8v96a32.036 32.036 0 0 0 32 32s49.142-0.061 49.7-0.183l102.293-22.24L302.3 495.817A7.956 7.956 0 0 0 304 496h48a32.036 32.036 0 0 0 32-32V339.644a405.241 405.241 0 0 1 86.548 6.518c4.744 0.876 9.542 1.85 14.26 2.9a7.916 7.916 0 0 0 1.732 0.19A8 8 0 0 0 494 338.364Zm-17.522-45.333l15.8-2.9 9.3 24.059-13.481 8.9ZM368 399.484l-75.63-4.726L329.889 376H368ZM200 240a74.071 74.071 0 0 0 40-11.643v15.362l-40 26.666-40-26.666v-15.4A74.953 74.953 0 0 0 200 240Zm90.625 125.934l3.367 10.122-16.116 8.061-14.753 0.922 13.789-10.724a7.978 7.978 0 0 0 2.719-3.964c0.064-0.024 0.129-0.041 0.192-0.067Zm-140-86.917l-5.236-13.091 7.632-7.632 34.422 22.949L161.781 306.9Zm112.351 85.868l-28.193 21.927-11.582 0.725 0.167-0.419c0.021-0.049 0.041-0.1 0.062-0.148l10.207-25.53 1.584 4.1a8 8 0 0 0 10.45 4.536l16.9-6.806ZM224 336.51l1.166 3.016L224 342.441Zm37.858 9.8l-14.639 5.9-12.913-33.408 14.639-5.895ZM248.189 281.99l-2.365 0.953a8 8 0 0 0-4.473 10.305l1.826 4.725-9.9 3.988-11.617-11.616v0l-9.1-9.1 34.423-22.949 7.633 7.633ZM176 315.314v27.145l-7.756-19.39Zm18.47 73.325L192 382.457V299.314l8-8 8 8v83.143l-2.471 6.184-5.527 0.344ZM328 360a7.994 7.994 0 0 0-3.578 0.845l-15.971 7.985-2.955-8.885 27.073-10.9L336.052 360Zm-46.628-7.588l-22.254-57.575 55.915-22.518 22.254 57.575ZM261.31 72A48.488 48.488 0 0 1 264 88v7.314A191.024 191.024 0 0 1 251.6 72ZM288 136a15.92 15.92 0 0 1-4.681 11.307 16.084 16.084 0 0 1-4.246 3.031A180.335 180.335 0 0 0 280 132.11v-9.945A16 16 0 0 1 288 136ZM243.314 56l12.9-12.9A31.934 31.934 0 0 1 262.987 56Zm-0.509-22.119L220.686 56H200.645l19.2-24H232A31.853 31.853 0 0 1 242.805 33.881ZM199.355 32l-19.2 24H168V43.466A46.283 46.283 0 0 1 198.627 32ZM136 64.985a17.778 17.778 0 0 1 16-17.678V62.369a314.715 314.715 0 0 1-16 31.774ZM111.52 136A16.011 16.011 0 0 1 120 121.885V132.11a179.944 179.944 0 0 0 0.954 18.453 16.1 16.1 0 0 1-4.727-3.27A15.878 15.878 0 0 1 111.52 136Zm26.6 22.355A163.872 163.872 0 0 1 136 132.11v-9.279C149.482 105.778 160.712 82.166 165.25 72h68.935c0.072 0.173 0.145 0.353 0.216 0.522a204.716 204.716 0 0 0 24.878 44.237c1.519 2.052 3.109 4.076 4.721 6.073v9.278a163.482 163.482 0 0 1-2.174 26.588 164.9 164.9 0 0 1-6.235 25.23 58.118 58.118 0 0 1-13.347 22.086 59.843 59.843 0 0 1-7.982 6.927A58.228 58.228 0 0 1 200 224a58.912 58.912 0 0 1-42.236-17.979A58.109 58.109 0 0 1 144.41 183.93a165.1 165.1 0 0 1-6.244-25.276ZM106.246 328l12.45-49.8 12.678-4.226 45.2 113c0.018 0.046 0.037 0.092 0.057 0.139l0.17 0.424-11.585-0.724-28.189-21.925 6.736-26.945A8 8 0 0 0 136 328ZM144 445.031l-16-3.478V400.516l16 1ZM32 376H70.111L112 396.944v41.829l-46.869-6.7A7.929 7.929 0 0 0 64 432l-32 0ZM95.141 480H48a16.019 16.019 0 0 1-16-16V448l31.432 0 55.108 7.873 31.76 6.907c0.021 0 0.041 0.006 0.062 0.01l11.973 2.6ZM368 464a16.019 16.019 0 0 1-16 16H304.859L160 448.509V402.516l208 13Zm0-104H352.842l-5.39-16.952 4.714-1.14q7.908-0.879 15.834-1.44Zm105.452-29.572a420.959 420.959 0 0 0-120.616-4.686l-23.643-61.169a434.141 434.141 0 0 0 82.316-83.787q1.46-1.958 2.908-3.943l59.39 153.65Z" fill="#0023ff" data-fill-palette-color="accent"></path><path d="M393.928 217.525l11.929 10.662c3.248-3.635 6.474-7.361 9.588-11.076l-12.261-10.278C400.178 210.418 397.063 214.016 393.928 217.525Z" fill="#0023ff" data-fill-palette-color="accent"></path><path d="M345.1 264.376l10.163 12.36a459.635 459.635 0 0 0 40.815-37.953l-11.588-11.032A443.236 443.236 0 0 1 345.1 264.376Z" fill="#0023ff" data-fill-palette-color="accent"></path><rect x="274.906" y="298.337" width="16" height="19.431" transform="translate(-92.039 122.719) rotate(-21.134)" fill="#0023ff" data-fill-palette-color="accent"></rect><rect x="298.493" y="288.838" width="16" height="19.432" transform="translate(-87.017 130.559) rotate(-21.13)" fill="#0023ff" data-fill-palette-color="accent"></rect><polygon points="176 432 176 440 192 440 192 432 192 424 176 424 176 432" fill="#0023ff" data-fill-palette-color="accent"></polygon><polygon points="208 440 208 448 224 448 224 440 224 432 208 432 208 440" fill="#0023ff" data-fill-palette-color="accent"></polygon></g></svg></g></svg></g><path d="M79.304 208.993L78.02 205.668 98.064 197.933 79.304 195.234 78.517 193.196 90.586 178.556 70.542 186.292 69.255 182.957 95.514 172.823 96.872 176.343 83.488 192.427 104.222 195.386 105.562 198.859ZM99.772 237.047L97.001 233.38 100.291 213.609C100.576 211.967 100.859 210.617 101.138 209.559 101.418 208.502 101.747 207.648 102.126 206.996 102.51 206.341 102.998 205.79 103.589 205.343V205.343C104.561 204.609 105.616 204.21 106.754 204.146 107.897 204.078 109.022 204.315 110.128 204.857 111.23 205.393 112.196 206.21 113.026 207.308V207.308C113.792 208.322 114.299 209.378 114.548 210.476 114.801 211.579 114.772 212.638 114.46 213.653 114.154 214.664 113.526 215.529 112.576 216.247V216.247C111.604 216.981 110.546 217.366 109.403 217.4 108.254 217.439 107.034 217.274 105.743 216.905 104.457 216.542 103.095 216.09 101.658 215.55V215.55C100.476 215.116 99.342 214.774 98.257 214.524 97.168 214.268 96.154 214.189 95.214 214.285 94.275 214.381 93.417 214.722 92.641 215.309V215.309C91.796 215.947 91.248 216.726 90.997 217.646 90.746 218.565 90.746 219.52 90.995 220.509 91.246 221.489 91.683 222.391 92.306 223.214V223.214C93.12 224.292 94.121 225.107 95.311 225.66 96.509 226.214 97.82 226.51 99.242 226.547 100.663 226.584 102.103 226.355 103.562 225.858 105.029 225.363 106.436 224.607 107.783 223.59V223.59L109.531 225.902C107.804 227.207 106.014 228.137 104.16 228.692 102.311 229.242 100.498 229.451 98.721 229.317 96.954 229.184 95.303 228.718 93.77 227.919 92.241 227.125 90.942 226.02 89.872 224.605V224.605C88.839 223.238 88.178 221.792 87.889 220.268 87.6 218.744 87.684 217.312 88.14 215.972 88.605 214.633 89.439 213.509 90.643 212.599V212.599C91.8 211.725 93.02 211.227 94.303 211.103 95.583 210.974 96.886 211.08 98.214 211.42 99.547 211.757 100.84 212.161 102.092 212.634V212.634C103.386 213.116 104.552 213.529 105.591 213.872 106.631 214.215 107.567 214.395 108.401 214.412 109.236 214.419 109.96 214.192 110.573 213.729V213.729C111.312 213.17 111.714 212.439 111.778 211.536 111.833 210.632 111.541 209.757 110.903 208.912V208.912C110.424 208.279 109.869 207.819 109.238 207.532 108.616 207.247 107.985 207.131 107.344 207.184 106.704 207.237 106.12 207.462 105.592 207.861V207.861C105.254 208.117 104.969 208.465 104.738 208.905 104.506 209.345 104.296 210.006 104.107 210.887 103.917 211.777 103.685 213.006 103.41 214.575V214.575ZM108.07 244.403L105.345 242.09 123.534 220.663 126.259 222.976 116.204 234.821 137.343 232.332 140.279 234.825 123.635 236.974 122.542 256.687 119.491 254.098 120.528 237.137 113.634 237.848ZM165.877 276.092L162.557 274.795 170.373 254.783 155.722 266.807 153.688 266.012 151.027 247.227 143.211 267.239 139.882 265.938 150.122 239.721 153.636 241.094 156.474 261.825 172.649 248.52 176.117 249.874ZM180.739 275.046L196.17 276.854 195.802 280 176.82 277.775 180.097 249.821 198.723 252.004 198.354 255.149 183.278 253.382 182.216 262.444 195.32 263.98 194.975 266.928 181.87 265.392ZM214.364 278.331L204.659 279.358 201.697 251.368 211.402 250.341C214.397 250.024 216.965 250.385 219.104 251.423 221.25 252.454 222.935 253.976 224.16 255.989 225.377 257.997 226.123 260.291 226.396 262.871V262.871C226.696 265.708 226.407 268.234 225.53 270.45 224.648 272.673 223.253 274.468 221.348 275.835 219.45 277.207 217.122 278.039 214.364 278.331ZM222.812 263.25V263.25C222.589 261.144 222.003 259.319 221.054 257.776 220.105 256.226 218.848 255.067 217.282 254.301 215.711 253.536 213.862 253.265 211.736 253.49V253.49L205.585 254.141 207.88 275.832 214.031 275.181C216.183 274.953 217.946 274.281 219.318 273.164 220.684 272.048 221.663 270.63 222.253 268.91 222.842 267.184 223.028 265.297 222.812 263.25ZM239.403 273.61L235.956 274.552 228.53 247.404 231.978 246.461ZM246.337 271.031L244.39 240.675 247.094 239.358 269.751 259.633 266.332 261.297 259.73 255.335 249.108 260.506 249.755 269.367ZM248.538 257.703L257.804 253.192 247.55 243.719ZM299.201 235.513L284.945 248.478 266.008 227.655 268.652 225.25 285.458 243.73 297.071 233.17ZM302.202 231.559L285.662 206.03 287.378 203.559 317.054 210.168 314.885 213.292 306.212 211.318 299.474 221.023 304.37 228.436ZM297.606 218.856L303.484 210.391 289.907 207.14ZM321.987 180.58V180.58C323.33 181.143 324.359 181.975 325.074 183.078 325.783 184.179 326.175 185.427 326.251 186.822 326.329 188.211 326.077 189.601 325.494 190.993V190.993L320.331 203.319 294.37 192.445 299.778 179.534C300.29 178.313 301.054 177.395 302.072 176.781 303.093 176.161 304.206 175.824 305.413 175.769 306.626 175.718 307.782 175.922 308.881 176.382V176.382C310.144 176.911 311.196 177.732 312.036 178.845 312.876 179.957 313.314 181.224 313.35 182.646V182.646C314.408 181.338 315.71 180.498 317.258 180.128 318.805 179.757 320.381 179.908 321.987 180.58ZM320.005 183.668V183.668C319.205 183.333 318.389 183.199 317.557 183.267 316.725 183.335 315.978 183.578 315.314 183.996 314.649 184.42 314.152 185.023 313.825 185.805V185.805L309.936 195.09 318.864 198.83 322.646 189.801C322.983 188.995 323.08 188.181 322.936 187.36 322.789 186.545 322.459 185.808 321.946 185.148 321.433 184.489 320.786 183.995 320.005 183.668ZM302.151 181.862L298.599 190.342 307.271 193.974 310.731 185.714C311.058 184.933 311.151 184.161 311.011 183.399 310.871 182.637 310.546 181.941 310.035 181.311 309.521 180.687 308.877 180.212 308.101 179.888V179.888C307.271 179.54 306.463 179.395 305.678 179.454 304.895 179.506 304.189 179.738 303.558 180.148 302.926 180.558 302.458 181.13 302.151 181.862Z" fill="#0023ff" data-fill-palette-color="primary"></path><path d="M98.36 85.864L97.095 89.154 77.292 81.541 89.239 95.951 88.466 97.962 69.929 100.696 89.732 108.308 88.468 111.598 62.52 101.624 63.856 98.149 84.312 95.238 71.091 79.328 72.412 75.89ZM115.933 62.786L113.199 66.419 93.53 68.666C91.891 68.841 90.534 68.938 89.459 68.958 88.381 68.983 87.478 68.9 86.751 68.71 86.03 68.523 85.376 68.209 84.789 67.767V67.767C83.832 67.047 83.165 66.156 82.788 65.094 82.415 64.026 82.335 62.894 82.549 61.696 82.764 60.508 83.279 59.371 84.095 58.287V58.287C84.851 57.282 85.716 56.512 86.69 55.978 87.667 55.438 88.68 55.177 89.727 55.194 90.774 55.212 91.765 55.573 92.702 56.277V56.277C93.664 57.001 94.319 57.904 94.665 58.984 95.012 60.065 95.186 61.265 95.188 62.583 95.186 63.907 95.126 65.324 95.008 66.834V66.834C94.919 68.075 94.903 69.248 94.959 70.35 95.011 71.449 95.208 72.43 95.553 73.294 95.902 74.162 96.463 74.886 97.235 75.467V75.467C98.065 76.092 98.95 76.401 99.89 76.396 100.829 76.382 101.733 76.122 102.602 75.616 103.471 75.11 104.212 74.45 104.825 73.636V73.636C105.625 72.573 106.128 71.398 106.333 70.112 106.53 68.827 106.452 67.505 106.099 66.146 105.752 64.791 105.144 63.485 104.276 62.228 103.409 60.97 102.308 59.84 100.976 58.837V58.837L102.695 56.552C104.403 57.838 105.772 59.282 106.802 60.885 107.828 62.494 108.519 64.157 108.875 65.874 109.233 67.601 109.239 69.299 108.893 70.969 108.552 72.634 107.856 74.165 106.805 75.561V75.561C105.783 76.92 104.59 77.944 103.227 78.633 101.858 79.318 100.476 79.624 99.081 79.552 97.677 79.481 96.382 79 95.198 78.109V78.109C94.05 77.245 93.243 76.22 92.778 75.033 92.313 73.846 92.058 72.578 92.013 71.227 91.973 69.872 92.011 68.534 92.127 67.213V67.213C92.228 65.856 92.3 64.638 92.341 63.56 92.388 62.485 92.302 61.547 92.085 60.746 91.873 59.948 91.463 59.321 90.855 58.863V58.863C90.125 58.314 89.322 58.132 88.445 58.318 87.57 58.512 86.818 59.027 86.189 59.863V59.863C85.72 60.487 85.433 61.137 85.33 61.813 85.231 62.484 85.293 63.119 85.514 63.716 85.74 64.308 86.114 64.801 86.638 65.195V65.195C86.971 65.446 87.378 65.62 87.86 65.717 88.338 65.82 89.023 65.839 89.917 65.774 90.816 65.713 92.043 65.601 93.599 65.438V65.438ZM121.269 58.527L118.587 60.814 100.578 39.69 103.26 37.403 113.218 49.083 114.144 28.072 117.03 25.612 116.486 42.174 135.54 46.36 132.534 48.923 116.158 45.233 115.755 52.06ZM173.108 30.272L169.826 31.557 162.092 11.8 159.509 30.339 157.503 31.125 142.983 19.281 150.717 39.037 147.435 40.322 137.302 14.437 140.768 13.079 156.713 26.22 159.545 5.729 162.975 4.386ZM182.319 26.265L197.562 24.459 197.93 27.564 179.187 29.785 175.916 2.18 194.313 0 194.681 3.106 179.784 4.871 180.845 13.823 193.79 12.289 194.135 15.197 181.19 16.731ZM212.068 29.216L202.49 28.215 205.379 0.567 214.957 1.568C217.919 1.877 220.33 2.751 222.19 4.19 224.042 5.635 225.352 7.452 226.122 9.642 226.891 11.839 227.142 14.207 226.877 16.748V16.748C226.583 19.553 225.782 21.934 224.473 23.894 223.169 25.86 221.457 27.309 219.337 28.238 217.216 29.175 214.793 29.5 212.068 29.216ZM223.332 16.378V16.378C223.548 14.304 223.359 12.421 222.764 10.729 222.162 9.042 221.184 7.669 219.831 6.609 218.471 5.542 216.739 4.898 214.632 4.678V4.678L208.559 4.043 206.32 25.471 212.393 26.105C214.526 26.328 216.369 26.042 217.923 25.246 219.47 24.449 220.707 23.277 221.634 21.731 222.554 20.19 223.12 18.405 223.332 16.378ZM233.888 33.317L230.488 32.389 237.805 5.571 241.205 6.499ZM237.497 34.631L259.908 14.622 262.587 15.925 260.627 45.887 257.253 44.245 257.86 35.487 247.361 30.378 240.88 36.278ZM249.194 28.222L258.354 32.679 259.466 18.934ZM285.422 66.864L271.364 54.035 290.101 33.501 292.705 35.877 276.075 54.101 287.53 64.554ZM285.57 67.553L314.915 61.108 316.609 63.558 300.206 88.707 298.071 85.621 302.896 78.286 296.253 68.685 287.711 70.647ZM298.907 67.705L304.703 76.082 312.415 64.649ZM316.365 108.958V108.958C315.039 109.51 313.74 109.654 312.468 109.388 311.198 109.129 310.049 108.539 309.02 107.62 307.988 106.709 307.186 105.567 306.613 104.192V104.192L301.536 92.013 327.195 81.318 332.512 94.074C333.016 95.284 333.13 96.459 332.852 97.6 332.584 98.745 332.046 99.761 331.241 100.649 330.441 101.534 329.497 102.204 328.41 102.657V102.657C327.157 103.179 325.852 103.35 324.494 103.171 323.127 102.988 321.932 102.417 320.909 101.46V101.46C321.095 103.11 320.779 104.608 319.963 105.952 319.153 107.294 317.953 108.296 316.365 108.958ZM315.571 105.427V105.427C316.365 105.096 317.024 104.613 317.549 103.979 318.082 103.348 318.431 102.654 318.595 101.897 318.758 101.134 318.679 100.367 318.358 99.598V99.598L314.53 90.415 305.715 94.09 309.435 103.016C309.766 103.81 310.27 104.442 310.947 104.913 311.621 105.378 312.367 105.662 313.184 105.766 314.006 105.861 314.801 105.748 315.571 105.427ZM329.224 94.133L325.729 85.748 317.17 89.315 320.573 97.48C320.896 98.256 321.373 98.857 322.002 99.283 322.634 99.715 323.346 99.971 324.139 100.049 324.938 100.125 325.722 100.002 326.492 99.681V99.681C327.31 99.34 327.973 98.874 328.479 98.283 328.98 97.694 329.304 97.035 329.452 96.307 329.6 95.578 329.524 94.854 329.224 94.133Z" fill="#0023ff" data-fill-palette-color="primary"></path><path d="M61.913 143.564C61.913 137.626 66.726 132.812 72.664 132.812 78.602 132.812 83.416 137.626 83.416 143.564 83.416 149.502 78.602 154.316 72.664 154.316 66.726 154.316 61.913 149.502 61.913 143.564ZM312.104 143.564C312.104 137.626 316.918 132.812 322.856 132.812 328.794 132.812 333.607 137.626 333.607 143.564 333.607 149.502 328.794 154.316 322.856 154.316 316.918 154.316 312.104 149.502 312.104 143.564Z" fill="#0023ff" data-fill-palette-color="primary"></path></svg></g></svg></g></svg></g></svg></g><defs></defs></svg><rect width="395.52" height="280" fill="none" stroke="none" visibility="hidden"></rect></g></svg></g></g></g></g></svg>
